# xmcd
#
# Track frame offsets:
#	150
#	22559
#	45481
#	62647
#	84819
#	110474
#	142285
#	173545
#	195709
#	219754
#	246361
#	262626
#
# Disc length: 3723 seconds
#
# Revision: 0
# Processed by: cddbd v1.5.1PL0 Copyright (c) Steve Scherf et al.
# Submitted via: EasyCDDAExtractor 8.2.1.1
#
DISCID=8f0e890c
DTITLE=Various Artist - Dcc music sampler
DYEAR=1992
DGENRE=Blues
TTITLE0=Dave grugn and lee ritenour - Early a.M. attitude
TTITLE1=Dave grusin - Fascinating rhythm
TTITLE2=Diane schuur - Them there eyes
TTITLE3=Spyro gyra - Pio's song
TTITLE4=Rippingtons - Curves ahead
TTITLE5=David benoit - Shadows
TTITLE6=Grp ali-star big band - Sister sadie
TTITLE7=Chick corea - One of us is over 40.
TTITLE8=Gary burton - Reunion
TTITLE9=Lee ritenour - Wes bound
TTITLE10=B.B. king - The thrill is gone
TTITLE11=The glenn miller orchestra - In the mood
EXTD=
EXTT0=
EXTT1=
EXTT2=
EXTT3=
EXTT4=
EXTT5=
EXTT6=
EXTT7=
EXTT8=
EXTT9=
EXTT10=
EXTT11=
PLAYORDER=
